# xmcd
# Track frame offsets:
# 150
# 10467
# 23839
# 43285
# 54637
# 80785
# 92527
# 107048
# 121414
# 132888
# 145319
# 158129
# 174221
# 180607
# 193416
# 201571
#
# Disc length: 3003 seconds
# Revision: 1
# Processed by: cddbd v1.5.2PL0 Copyright (c) Steve Scherf et al.
# Submitted via: VisiTrax 2.11.3.279 - For more info visit www.synapsa.com
#
DISCID=e70bb910
DTITLE=Slim Dusty - Slim Dusty Live Disc 2
DYEAR=2006
DGENRE=Australian Country
TTITLE0=Slim Dusty and The Travelling Country Band - The Sunlander (Intrumental)
TTITLE1=Joy McKean - Our Wedding Waltz
TTITLE2=Joy McKean - Kelly's Offsider
TTITLE3=Joy McKean - Hills of Home
TTITLE4=The McKean Sisters - Yodel Medley: Gymkana Yodel/My Sunset Home/Yode
TTITLE4=l Down The Valley
TTITLE5=Slim Dusty - A Pub With No Beer
TTITLE6=Slim Dusty - Duncan
TTITLE7=Slim Dusty - My Old Pal
TTITLE8=Slim Dusty - Good Heavens Above
TTITLE9=Slim Dusty and The Travelling Country Band - Along The Road To Nulla Nul
TTITLE9=la (Intrumental)
TTITLE10=Slim Dusty - Brown Bottle Blues
TTITLE11=Slim Dusty - Claypan Boogie
TTITLE12=Slim Dusty - Introduction
TTITLE13=Slim Dusty - Losing My Blues Tonight
TTITLE14=Slim Dusty - Introduction
TTITLE15=Slim Dusty - Lights On The Hill
EXTD=2006 EMI Misic Australia Pty.
EXTT0=
EXTT1=
EXTT2=
EXTT3=
EXTT4=
EXTT5=
EXTT6=
EXTT7=
EXTT8=
EXTT9=
EXTT10=
EXTT11=
EXTT12=
EXTT13=
EXTT14=
EXTT15=
PLAYORDER=
